<svg width="25" height="25" viewBox="0 0 25 25" fill="none" xmlns="http://www.w3.org/2000/svg">
<path d="M12.5 7.8125C12.0856 7.8125 11.6882 7.64788 11.3951 7.35485C11.1021 7.06183 10.9375 6.6644 10.9375 6.25C10.9375 5.8356 11.1021 5.43817 11.3951 5.14515C11.6882 4.85212 12.0856 4.6875 12.5 4.6875C12.9144 4.6875 13.3118 4.85212 13.6049 5.14515C13.8979 5.43817 14.0625 5.8356 14.0625 6.25C14.0625 6.6644 13.8979 7.06183 13.6049 7.35485C13.3118 7.64788 12.9144 7.8125 12.5 7.8125ZM12.5 14.0625C12.0856 14.0625 11.6882 13.8979 11.3951 13.6049C11.1021 13.3118 10.9375 12.9144 10.9375 12.5C10.9375 12.0856 11.1021 11.6882 11.3951 11.3951C11.6882 11.1021 12.0856 10.9375 12.5 10.9375C12.9144 10.9375 13.3118 11.1021 13.6049 11.3951C13.8979 11.6882 14.0625 12.0856 14.0625 12.5C14.0625 12.9144 13.8979 13.3118 13.6049 13.6049C13.3118 13.8979 12.9144 14.0625 12.5 14.0625ZM10.9375 18.75C10.9375 19.1644 11.1021 19.5618 11.3951 19.8549C11.6882 20.1479 12.0856 20.3125 12.5 20.3125C12.9144 20.3125 13.3118 20.1479 13.6049 19.8549C13.8979 19.5618 14.0625 19.1644 14.0625 18.75C14.0625 18.3356 13.8979 17.9382 13.6049 17.6451C13.3118 17.3521 12.9144 17.1875 12.5 17.1875C12.0856 17.1875 11.6882 17.3521 11.3951 17.6451C11.1021 17.9382 10.9375 18.3356 10.9375 18.75Z" fill="black"/>
</svg>
