<svg width="106" height="106" viewBox="0 0 106 106" fill="none" xmlns="http://www.w3.org/2000/svg">
<path d="M100.678 91.1935C100.678 99.3158 95.9515 105.906 90.1116 105.906H29.6353C23.7986 105.906 19.0651 99.3158 19.0651 91.1935V21.2666C19.0651 13.1444 23.7986 6.55582 29.6353 6.55582H90.1116C95.9515 6.55582 100.678 13.1444 100.678 21.2666V91.1935Z" fill="#25333A"/>
<path d="M94.8369 98.0338V7.91726C94.8369 7.17195 94.2274 6.55086 93.5119 6.55086H8.56116C7.84566 6.55086 7.24609 7.17195 7.24609 7.91726V98.0338C7.24609 98.4363 7.37859 98.7477 7.59722 98.9646C7.59722 98.9729 7.61875 98.9796 7.63366 98.9911C7.63366 99.0127 7.64856 99.0176 7.67672 99.0309C7.78929 99.1519 7.92644 99.2475 8.07898 99.3112C8.23152 99.3749 8.39593 99.4053 8.56116 99.4002H93.5119C94.2274 99.4019 94.8369 98.7808 94.8369 98.0338Z" fill="#E6E7E8"/>
<path d="M22.8761 4.03003C25.6702 3.33607 28.35 4.02672 29.3073 6.54919C29.5127 6.53925 33.9101 6.69494 33.9101 6.69494C33.0621 2.08228 28.0403 -0.390497 23.209 0.169316C16.8258 0.906347 14.6263 5.80057 15.0653 11.6256C15.2474 14.0354 18.9508 13.5104 18.7686 11.1138C18.5036 7.59925 19.1247 4.96582 22.8761 4.03003ZM45.2239 3.93894C48.0147 3.24497 50.6995 3.93563 51.6518 6.4581C51.8605 6.44816 56.2562 6.60385 56.2562 6.60385C55.4049 1.99119 50.3881 -0.48159 45.5519 0.0782221C39.1687 0.815253 36.9692 5.70947 37.4114 11.5345C37.5936 13.9443 41.2969 13.4193 41.1148 11.0227C40.8481 7.5065 41.4692 4.87307 45.2239 3.93894ZM71.285 3.93894C74.0758 3.24497 76.7606 3.93563 77.7129 6.4581C77.9216 6.44816 82.3189 6.60385 82.3189 6.60385C81.4676 1.99119 76.4492 -0.48159 71.6129 0.0782221C65.2298 0.815253 63.0303 5.70947 63.4725 11.5345C63.6547 13.9443 67.3597 13.4193 67.1725 11.0227C66.9092 7.5065 67.5303 4.87307 71.285 3.93894Z" fill="#25333A"/>
<path d="M72.4113 34.4322H25.97C22.843 34.4322 22.843 30.0431 25.97 30.0431H72.4113C75.53 30.0415 75.53 34.4322 72.4113 34.4322ZM72.4113 43.3444H25.97C22.843 43.3444 22.843 38.9554 25.97 38.9554H72.4113C75.53 38.9554 75.53 43.3444 72.4113 43.3444ZM72.4113 52.4555H25.97C22.843 52.4555 22.843 48.0664 25.97 48.0664H72.4113C75.53 48.0664 75.53 52.4555 72.4113 52.4555ZM72.4113 61.3644H25.97C22.843 61.3644 22.843 56.9737 25.97 56.9737H72.4113C75.53 56.9721 75.53 61.3644 72.4113 61.3644ZM72.4113 78.5729H51.039C47.9269 78.5729 47.9269 74.1838 51.039 74.1838H72.4113C75.53 74.1822 75.53 78.5729 72.4113 78.5729Z" fill="#35494D"/>
</svg>
